<svg width="221" height="27" viewBox="0 0 221 27" fill="none" xmlns="http://www.w3.org/2000/svg">
<path d="M0.61 26V0.664999H10.195C11.185 0.664999 12.25 0.739999 13.39 0.889999C14.53 1.01 15.595 1.295 16.585 1.745C17.575 2.165 18.385 2.825 19.015 3.725C19.645 4.625 19.96 5.84 19.96 7.37C19.96 8.33 19.765 9.23 19.375 10.07C19.015 10.88 18.34 11.54 17.35 12.05C16.36 12.56 14.95 12.845 13.12 12.905V13.085C15.25 13.115 16.885 13.415 18.025 13.985C19.195 14.555 20.005 15.305 20.455 16.235C20.905 17.135 21.13 18.14 21.13 19.25C21.13 20.84 20.785 22.085 20.095 22.985C19.405 23.885 18.52 24.56 17.44 25.01C16.36 25.43 15.205 25.7 13.975 25.82C12.775 25.94 11.635 26 10.555 26H0.61ZM4.3 11.465H9.745C10.975 11.465 12.07 11.405 13.03 11.285C14.02 11.135 14.8 10.79 15.37 10.25C15.94 9.71 16.225 8.87 16.225 7.73C16.225 6.5 15.925 5.615 15.325 5.075C14.725 4.505 13.93 4.145 12.94 3.995C11.95 3.845 10.9 3.77 9.79 3.77H4.3V11.465ZM4.3 22.94H10.24C11.53 22.94 12.7 22.865 13.75 22.715C14.8 22.535 15.64 22.16 16.27 21.59C16.93 20.99 17.26 20.06 17.26 18.8C17.26 17.51 16.915 16.55 16.225 15.92C15.565 15.29 14.665 14.885 13.525 14.705C12.415 14.495 11.2 14.39 9.88 14.39H4.3V22.94Z" fill="#FA8C7D"/>
<path d="M32.9123 26.45C29.8523 26.45 27.5723 25.565 26.0723 23.795C24.5723 22.025 23.8223 19.775 23.8223 17.045C23.7923 14.285 24.5423 12.02 26.0723 10.25C27.6023 8.48 29.8823 7.58 32.9123 7.55C35.8523 7.55 38.0873 8.42 39.6173 10.16C41.1473 11.9 41.9123 14.195 41.9123 17.045C41.9123 18.815 41.5823 20.42 40.9223 21.86C40.2923 23.27 39.3023 24.395 37.9523 25.235C36.6323 26.045 34.9523 26.45 32.9123 26.45ZM32.9123 23.255C34.3523 23.255 35.4473 22.94 36.1973 22.31C36.9773 21.68 37.5173 20.885 37.8173 19.925C38.1173 18.935 38.2673 17.93 38.2673 16.91C38.2673 15.89 38.1173 14.9 37.8173 13.94C37.5173 12.95 36.9773 12.14 36.1973 11.51C35.4473 10.85 34.3523 10.52 32.9123 10.52C31.4423 10.52 30.3173 10.85 29.5373 11.51C28.7573 12.14 28.2173 12.95 27.9173 13.94C27.6173 14.9 27.4673 15.89 27.4673 16.91C27.4673 17.93 27.6173 18.935 27.9173 19.925C28.2173 20.885 28.7573 21.68 29.5373 22.31C30.3173 22.94 31.4423 23.255 32.9123 23.255Z" fill="#FFA17A" fill-opacity="0.78"/>
<path d="M53.8302 26.45C50.7702 26.45 48.4902 25.565 46.9902 23.795C45.4902 22.025 44.7402 19.775 44.7402 17.045C44.7102 14.285 45.4602 12.02 46.9902 10.25C48.5202 8.48 50.8002 7.58 53.8302 7.55C56.7702 7.55 59.0052 8.42 60.5352 10.16C62.0652 11.9 62.8302 14.195 62.8302 17.045C62.8302 18.815 62.5002 20.42 61.8402 21.86C61.2102 23.27 60.2202 24.395 58.8702 25.235C57.5502 26.045 55.8702 26.45 53.8302 26.45ZM53.8302 23.255C55.2702 23.255 56.3652 22.94 57.1152 22.31C57.8952 21.68 58.4352 20.885 58.7352 19.925C59.0352 18.935 59.1852 17.93 59.1852 16.91C59.1852 15.89 59.0352 14.9 58.7352 13.94C58.4352 12.95 57.8952 12.14 57.1152 11.51C56.3652 10.85 55.2702 10.52 53.8302 10.52C52.3602 10.52 51.2352 10.85 50.4552 11.51C49.6752 12.14 49.1352 12.95 48.8352 13.94C48.5352 14.9 48.3852 15.89 48.3852 16.91C48.3852 17.93 48.5352 18.935 48.8352 19.925C49.1352 20.885 49.6752 21.68 50.4552 22.31C51.2352 22.94 52.3602 23.255 53.8302 23.255Z" fill="#2CC788"/>
<path d="M70.3382 26H66.5582V0.664999H70.3382V16.955L79.2482 7.505H83.9282L76.0982 15.38L84.0632 26H79.5632L73.4882 18.08L70.3382 21.23V26Z" fill="#E7AA2E"/>
<path d="M94.2986 26.45C91.3586 26.45 89.1536 25.58 87.6836 23.84C86.2436 22.07 85.5236 19.82 85.5236 17.09C85.4936 14.33 86.2136 12.08 87.6836 10.34C89.1836 8.57 91.3886 7.67 94.2986 7.64C97.1786 7.64 99.3536 8.51 100.824 10.25C102.324 11.96 103.074 14.24 103.074 17.09C103.074 18.86 102.759 20.45 102.129 21.86C101.499 23.27 100.539 24.395 99.2486 25.235C97.9586 26.045 96.3086 26.45 94.2986 26.45ZM94.2986 23.93C95.8586 23.93 97.0586 23.585 97.8986 22.895C98.7686 22.205 99.3686 21.335 99.6986 20.285C100.059 19.205 100.239 18.11 100.239 17C100.239 15.89 100.059 14.795 99.6986 13.715C99.3686 12.635 98.7686 11.75 97.8986 11.06C97.0586 10.37 95.8586 10.025 94.2986 10.025C92.7386 10.025 91.5236 10.37 90.6536 11.06C89.8136 11.75 89.2136 12.635 88.8536 13.715C88.5236 14.795 88.3586 15.89 88.3586 17C88.3586 18.11 88.5236 19.205 88.8536 20.285C89.2136 21.335 89.8136 22.205 90.6536 22.895C91.5236 23.585 92.7386 23.93 94.2986 23.93ZM106.585 26V7.685H109.06L109.555 12.23H109.645C109.675 12.08 109.81 11.765 110.05 11.285C110.29 10.805 110.65 10.295 111.13 9.755C111.64 9.185 112.3 8.705 113.11 8.315C113.92 7.895 114.955 7.685 116.215 7.685C117.805 7.685 119.05 7.97 119.95 8.54C120.88 9.11 121.57 9.875 122.02 10.835C122.47 11.765 122.755 12.77 122.875 13.85C122.995 14.93 123.055 15.965 123.055 16.955V26H120.265V16.955C120.265 14.975 119.92 13.37 119.23 12.14C118.57 10.91 117.25 10.295 115.27 10.295C113.92 10.295 112.81 10.625 111.94 11.285C111.1 11.915 110.485 12.77 110.095 13.85C109.735 14.9 109.555 16.055 109.555 17.315V26H106.585ZM134.948 26.45C132.008 26.45 129.803 25.58 128.333 23.84C126.893 22.07 126.173 19.82 126.173 17.09C126.143 14.33 126.863 12.08 128.333 10.34C129.833 8.57 132.038 7.67 134.948 7.64C137.828 7.64 140.003 8.51 141.473 10.25C142.973 11.96 143.723 14.24 143.723 17.09C143.723 18.86 143.408 20.45 142.778 21.86C142.148 23.27 141.188 24.395 139.898 25.235C138.608 26.045 136.958 26.45 134.948 26.45ZM134.948 23.93C136.508 23.93 137.708 23.585 138.548 22.895C139.418 22.205 140.018 21.335 140.348 20.285C140.708 19.205 140.888 18.11 140.888 17C140.888 15.89 140.708 14.795 140.348 13.715C140.018 12.635 139.418 11.75 138.548 11.06C137.708 10.37 136.508 10.025 134.948 10.025C133.388 10.025 132.173 10.37 131.303 11.06C130.463 11.75 129.863 12.635 129.503 13.715C129.173 14.795 129.008 15.89 129.008 17C129.008 18.11 129.173 19.205 129.503 20.285C129.863 21.335 130.463 22.205 131.303 22.895C132.173 23.585 133.388 23.93 134.948 23.93ZM147.234 26V7.685H149.709L149.889 12.23H149.979C150.039 12.02 150.174 11.675 150.384 11.195C150.594 10.685 150.924 10.16 151.374 9.62C151.824 9.08 152.409 8.63 153.129 8.27C153.849 7.88 154.764 7.685 155.874 7.685C157.554 7.685 158.784 8.15 159.564 9.08C160.374 10.01 160.914 11.06 161.184 12.23H161.274C161.364 12.02 161.529 11.675 161.769 11.195C162.009 10.685 162.369 10.16 162.849 9.62C163.329 9.08 163.944 8.63 164.694 8.27C165.474 7.88 166.419 7.685 167.529 7.685C168.699 7.685 169.659 7.925 170.409 8.405C171.159 8.855 171.729 9.47 172.119 10.25C172.539 11 172.839 11.795 173.019 12.635C173.199 13.475 173.304 14.285 173.334 15.065C173.364 15.845 173.379 16.475 173.379 16.955V26H170.859V16.955C170.859 16.475 170.829 15.86 170.769 15.11C170.709 14.36 170.559 13.625 170.319 12.905C170.079 12.155 169.659 11.54 169.059 11.06C168.489 10.55 167.664 10.295 166.584 10.295C165.384 10.295 164.424 10.625 163.704 11.285C162.984 11.945 162.459 12.815 162.129 13.895C161.799 14.945 161.634 16.085 161.634 17.315V26H159.114V16.955C159.114 16.475 159.084 15.86 159.024 15.11C158.964 14.36 158.814 13.625 158.574 12.905C158.334 12.155 157.914 11.54 157.314 11.06C156.744 10.55 155.919 10.295 154.839 10.295C153.639 10.295 152.679 10.625 151.959 11.285C151.239 11.945 150.714 12.815 150.384 13.895C150.054 14.945 149.889 16.085 149.889 17.315V26H147.234ZM179.236 5.705C178.576 5.705 178.126 5.54 177.886 5.21C177.676 4.85 177.571 4.4 177.571 3.86C177.571 3.41 177.676 3.02 177.886 2.69C178.126 2.33 178.576 2.15 179.236 2.15C179.896 2.15 180.331 2.33 180.541 2.69C180.781 3.02 180.901 3.41 180.901 3.86C180.901 4.4 180.781 4.85 180.541 5.21C180.331 5.54 179.896 5.705 179.236 5.705ZM177.796 26V7.685H180.676V26H177.796ZM193.311 26.45C191.601 26.45 190.071 26.09 188.721 25.37C187.371 24.65 186.306 23.6 185.526 22.22C184.746 20.84 184.356 19.175 184.356 17.225C184.416 15.305 184.821 13.625 185.571 12.185C186.351 10.745 187.416 9.635 188.766 8.855C190.116 8.045 191.661 7.64 193.401 7.64C195.021 7.64 196.431 7.94 197.631 8.54C198.831 9.14 199.791 9.95 200.511 10.97C201.231 11.99 201.681 13.115 201.861 14.345H199.206C198.906 13.025 198.246 12.005 197.226 11.285C196.236 10.565 194.991 10.205 193.491 10.205C191.571 10.205 190.041 10.85 188.901 12.14C187.791 13.4 187.221 15.05 187.191 17.09C187.191 19.16 187.731 20.81 188.811 22.04C189.921 23.24 191.466 23.84 193.446 23.84C194.886 23.84 196.131 23.48 197.181 22.76C198.231 22.04 198.906 21.005 199.206 19.655H201.861C201.681 20.915 201.216 22.055 200.466 23.075C199.746 24.095 198.771 24.92 197.541 25.55C196.341 26.15 194.931 26.45 193.311 26.45ZM212.532 26.45C210.792 26.45 209.352 26.09 208.212 25.37C207.102 24.62 206.262 23.75 205.692 22.76C205.152 21.77 204.882 20.885 204.882 20.105H207.672C207.672 20.135 207.687 20.36 207.717 20.78C207.777 21.2 207.942 21.68 208.212 22.22C208.482 22.76 208.947 23.24 209.607 23.66C210.267 24.05 211.227 24.245 212.487 24.245C213.837 24.245 214.992 24.005 215.952 23.525C216.942 23.045 217.422 22.295 217.392 21.275C217.392 20.405 217.092 19.745 216.492 19.295C215.922 18.815 215.172 18.455 214.242 18.215C213.312 17.945 212.337 17.69 211.317 17.45C210.297 17.21 209.322 16.91 208.392 16.55C207.492 16.16 206.757 15.62 206.187 14.93C205.617 14.24 205.332 13.28 205.332 12.05C205.332 10.55 206.007 9.365 207.357 8.495C208.707 7.595 210.432 7.145 212.532 7.145C213.702 7.145 214.887 7.34 216.087 7.73C217.287 8.09 218.277 8.735 219.057 9.665C219.837 10.565 220.197 11.84 220.137 13.49H217.437C217.497 12.35 217.242 11.495 216.672 10.925C216.102 10.355 215.412 9.98 214.602 9.8C213.822 9.59 213.102 9.485 212.442 9.485C211.152 9.485 210.087 9.725 209.247 10.205C208.437 10.685 208.032 11.36 208.032 12.23C208.032 13.07 208.317 13.715 208.887 14.165C209.487 14.585 210.237 14.93 211.137 15.2C212.067 15.44 213.042 15.68 214.062 15.92C215.112 16.13 216.102 16.43 217.032 16.82C217.962 17.21 218.712 17.765 219.282 18.485C219.882 19.205 220.182 20.195 220.182 21.455C220.182 23.195 219.447 24.47 217.977 25.28C216.507 26.06 214.692 26.45 212.532 26.45Z" fill="#193C46" fill-opacity="0.78"/>
</svg>
